<svg xmlns="http://www.w3.org/2000/svg" viewBox="0 0 800 400">
  <!-- Background gradient -->
  <defs>
    <linearGradient id="bgGradient" x1="0%" y1="0%" x2="100%" y2="100%">
      <stop offset="0%" style="stop-color:#1B1F1D;stop-opacity:0.9" />
      <stop offset="100%" style="stop-color:#3a5a40;stop-opacity:0.9" />
    </linearGradient>
    
    <!-- Filters -->
    <filter id="glow" x="-50%" y="-50%" width="200%" height="200%">
      <feGaussianBlur stdDeviation="5" result="blur" />
      <feComposite in="SourceGraphic" in2="blur" operator="over" />
    </filter>
    
    <!-- Thinking pattern -->
    <pattern id="thinkingPattern" patternUnits="userSpaceOnUse" width="50" height="50">
      <path d="M25,0 Q50,25 25,50 Q0,25 25,0" fill="none" stroke="#A3B18A" stroke-width="1" opacity="0.1"/>
    </pattern>
  </defs>
  
  <!-- Main background -->
  <rect width="800" height="400" fill="url(#bgGradient)" />
  
  <!-- Background thinking pattern -->
  <rect width="800" height="400" fill="url(#thinkingPattern)" opacity="0.3" />
  
  <!-- Skewed grid - represents the game grid -->
  <g transform="translate(400, 200) scale(0.8)">
    <!-- Skewed grid container -->
    <g transform="skewY(-15)">
      <!-- Grid cell types colors -->
      <rect x="-250" y="-150" width="500" height="300" fill="rgba(163, 177, 138, 0.1)" stroke="#A3B18A" stroke-width="1" />
      
      <!-- Grid cells -->
      <g stroke="#A3B18A" stroke-width="1" opacity="0.8">
        <!-- Horizontal grid lines -->
        <line x1="-250" y1="-150" x2="250" y2="-150" />
        <line x1="-250" y1="-100" x2="250" y2="-100" />
        <line x1="-250" y1="-50" x2="250" y2="-50" />
        <line x1="-250" y1="0" x2="250" y2="0" />
        <line x1="-250" y1="50" x2="250" y2="50" />
        <line x1="-250" y1="100" x2="250" y2="100" />
        <line x1="-250" y1="150" x2="250" y2="150" />
        
        <!-- Vertical grid lines -->
        <line x1="-250" y1="-150" x2="-250" y2="150" />
        <line x1="-200" y1="-150" x2="-200" y2="150" />
        <line x1="-150" y1="-150" x2="-150" y2="150" />
        <line x1="-100" y1="-150" x2="-100" y2="150" />
        <line x1="-50" y1="-150" x2="-50" y2="150" />
        <line x1="0" y1="-150" x2="0" y2="150" />
        <line x1="50" y1="-150" x2="50" y2="150" />
        <line x1="100" y1="-150" x2="100" y2="150" />
        <line x1="150" y1="-150" x2="150" y2="150" />
        <line x1="200" y1="-150" x2="200" y2="150" />
        <line x1="250" y1="-150" x2="250" y2="150" />
      </g>
      
      <!-- Special Cell Types -->
      <!-- WALKABLE cells -->
      <rect x="-50" y="-100" width="50" height="50" fill="rgba(144, 238, 144, 0.5)" />
      <rect x="0" y="-100" width="50" height="50" fill="rgba(144, 238, 144, 0.5)" />
      <rect x="50" y="-100" width="50" height="50" fill="rgba(144, 238, 144, 0.5)" />
      <rect x="-50" y="-50" width="50" height="50" fill="rgba(144, 238, 144, 0.5)" />
      <rect x="0" y="-50" width="50" height="50" fill="rgba(144, 238, 144, 0.5)" />
      <rect x="50" y="-50" width="50" height="50" fill="rgba(144, 238, 144, 0.5)" />
      <rect x="-50" y="0" width="50" height="50" fill="rgba(144, 238, 144, 0.5)" />
      <rect x="0" y="0" width="50" height="50" fill="rgba(144, 238, 144, 0.5)" />
      <rect x="50" y="0" width="50" height="50" fill="rgba(144, 238, 144, 0.5)" />
      
      <!-- NON_WALKABLE cells -->
      <rect x="-150" y="-50" width="50" height="50" fill="rgba(255, 107, 107, 0.5)" />
      <rect x="-100" y="-50" width="50" height="50" fill="rgba(255, 107, 107, 0.5)" />
      
      <!-- AI_WALKABLE cells -->
      <rect x="100" y="-50" width="50" height="50" fill="rgba(186, 85, 211, 0.5)" />
      <rect x="150" y="-50" width="50" height="50" fill="rgba(186, 85, 211, 0.5)" />
    </g>
  </g>
  
  <!-- Game Characters -->
  <!-- Player character -->
  <g transform="translate(370, 220)">
    <circle cx="0" cy="0" r="15" fill="#D4D4C4" />
    <text x="0" y="5" fill="#1B1F1D" font-family="Arial" font-size="12" text-anchor="middle" font-weight="bold">P</text>
  </g>
  
  <!-- Enemy characters -->
  <g transform="translate(480, 195)">
    <circle cx="0" cy="0" r="12" fill="#ff6b6b" />
    <text x="0" y="4" fill="#1B1F1D" font-family="Arial" font-size="10" text-anchor="middle" font-weight="bold">E</text>
  </g>
  
  <g transform="translate(560, 185)">
    <circle cx="0" cy="0" r="12" fill="#ff6b6b" />
    <text x="0" y="4" fill="#1B1F1D" font-family="Arial" font-size="10" text-anchor="middle" font-weight="bold">E</text>
  </g>
  
  <!-- Pathfinding Visualization -->
  <!-- A* path -->
  <g transform="translate(400, 200)" opacity="0.9">
    <path d="M-30,20 L10,5 L30,-5 L70,-25 L100,-30 L160,-10" stroke="#FFD700" stroke-width="3" fill="none" stroke-dasharray="5,3" />
    <!-- Path nodes -->
    <circle cx="-30" cy="20" r="4" fill="#FFD700" />
    <circle cx="10" cy="5" r="4" fill="#FFD700" />
    <circle cx="30" cy="-5" r="4" fill="#FFD700" />
    <circle cx="70" cy="-25" r="4" fill="#FFD700" />
    <circle cx="100" cy="-30" r="4" fill="#FFD700" />
    <circle cx="160" cy="-10" r="4" fill="#FFD700" />
  </g>
  
  <!-- Coordinate System Illustration -->
  <g transform="translate(150, 110)">
    <rect x="0" y="0" width="180" height="140" rx="5" fill="rgba(27, 31, 29, 0.8)" />
    
    <!-- UV coordinate mapping -->
    <text x="10" y="20" fill="#D4D4C4" font-family="monospace" font-size="12">World to Grid Conversion:</text>
    <text x="10" y="45" fill="#A3B18A" font-family="monospace" font-size="10">float u = (relPos.x * gridZ.z -</text>
    <text x="10" y="60" fill="#A3B18A" font-family="monospace" font-size="10">  relPos.z * gridZ.x) /</text>
    <text x="10" y="75" fill="#A3B18A" font-family="monospace" font-size="10">  denominator;</text>
    <text x="10" y="95" fill="#A3B18A" font-family="monospace" font-size="10">float v = (relPos.z * gridX.x -</text>
    <text x="10" y="110" fill="#A3B18A" font-family="monospace" font-size="10">  relPos.x * gridX.z) /</text>
    <text x="10" y="125" fill="#A3B18A" font-family="monospace" font-size="10">  denominator;</text>
  </g>
  
  <!-- Cell Types Legend -->
  <g transform="translate(650, 110)">
    <rect x="0" y="0" width="130" height="90" rx="5" fill="rgba(27, 31, 29, 0.8)" />
    <text x="10" y="20" fill="#D4D4C4" font-family="Arial" font-size="12">Cell Types:</text>
    
    <rect x="10" y="30" width="15" height="15" fill="rgba(144, 238, 144, 0.5)" />
    <text x="30" y="42" fill="#D4D4C4" font-family="Arial" font-size="10">WALKABLE</text>
    
    <rect x="10" y="50" width="15" height="15" fill="rgba(255, 107, 107, 0.5)" />
    <text x="30" y="62" fill="#D4D4C4" font-family="Arial" font-size="10">NON_WALKABLE</text>
    
    <rect x="10" y="70" width="15" height="15" fill="rgba(186, 85, 211, 0.5)" />
    <text x="30" y="82" fill="#D4D4C4" font-family="Arial" font-size="10">AI_WALKABLE</text>
  </g>
  
  <!-- Entity Tracking Visualization -->
  <g transform="translate(650, 230)">
    <rect x="0" y="0" width="130" height="80" rx="5" fill="rgba(27, 31, 29, 0.8)" />
    <text x="10" y="20" fill="#D4D4C4" font-family="Arial" font-size="12">Entity Tracking:</text>
    
    <rect x="10" y="30" width="30" height="30" fill="none" stroke="#A3B18A" stroke-width="1" />
    <text x="25" y="45" fill="#D4D4C4" font-family="Arial" font-size="8" text-anchor="middle">2</text>
    
    <rect x="50" y="30" width="30" height="30" fill="none" stroke="#A3B18A" stroke-width="1" />
    <text x="65" y="45" fill="#D4D4C4" font-family="Arial" font-size="8" text-anchor="middle">1</text>
    
    <rect x="90" y="30" width="30" height="30" fill="none" stroke="#A3B18A" stroke-width="1" />
    <text x="105" y="45" fill="#D4D4C4" font-family="Arial" font-size="8" text-anchor="middle">0</text>
  </g>
  
  <!-- Collision Resolution Illustration -->
  <g transform="translate(150, 280)">
    <rect x="0" y="0" width="180" height="80" rx="5" fill="rgba(27, 31, 29, 0.8)" />
    <text x="10" y="20" fill="#D4D4C4" font-family="Arial" font-size="12">Collision Resolution:</text>
    
    <!-- Wall collision diagram -->
    <rect x="10" y="30" width="50" height="40" fill="rgba(255, 107, 107, 0.3)" stroke="#ff6b6b" stroke-width="1" />
    
    <!-- Movement vector -->
    <line x1="80" y1="60" x2="120" y2="40" stroke="#D4D4C4" stroke-width="1.5" stroke-dasharray="3,2" />
    <polygon points="120,40 112,38 116,46" fill="#D4D4C4" />
    
    <!-- Slide vector -->
    <line x1="80" y1="60" x2="120" y2="60" stroke="#A3B18A" stroke-width="1.5" />
    <polygon points="120,60 112,56 112,64" fill="#A3B18A" />
  </g>
  
  <!-- Title Bar -->
  <rect x="0" y="340" width="800" height="60" fill="rgba(27, 31, 29, 0.7)" />
  <text x="400" y="380" fill="#D4D4C4" font-family="Arial" font-size="24" text-anchor="middle" font-weight="bold">BUILDING A SKEWED GRID SYSTEM FOR 2D BEAT 'EM UPS</text>
</svg>