<svg xmlns="http://www.w3.org/2000/svg" viewBox="0 0 800 400">
  <!-- Background gradient -->
  <defs>
    <linearGradient id="bgGradient" x1="0%" y1="0%" x2="100%" y2="100%">
      <stop offset="0%" style="stop-color:#1B1F1D;stop-opacity:0.9" />
      <stop offset="100%" style="stop-color:#3a5a40;stop-opacity:0.9" />
    </linearGradient>
    
    <!-- Filters and patterns -->
    <filter id="glow" x="-50%" y="-50%" width="200%" height="200%">
      <feGaussianBlur stdDeviation="5" result="blur" />
      <feComposite in="SourceGraphic" in2="blur" operator="over" />
    </filter>
    
    <pattern id="cpuPattern" patternUnits="userSpaceOnUse" width="40" height="40">
      <rect width="20" height="20" fill="#588157" fill-opacity="0.2" />
      <rect x="20" y="20" width="20" height="20" fill="#588157" fill-opacity="0.2" />
    </pattern>
  </defs>
  
  <!-- Main background -->
  <rect width="800" height="400" fill="url(#bgGradient)" />
  
  <!-- Grid lines representing a coordinate system -->
  <g stroke="#A3B18A" stroke-width="0.5" opacity="0.2">
    <!-- Horizontal lines -->
    <line x1="0" y1="50" x2="800" y2="50" />
    <line x1="0" y1="100" x2="800" y2="100" />
    <line x1="0" y1="150" x2="800" y2="150" />
    <line x1="0" y1="200" x2="800" y2="200" />
    <line x1="0" y1="250" x2="800" y2="250" />
    <line x1="0" y1="300" x2="800" y2="300" />
    <line x1="0" y1="350" x2="800" y2="350" />
    
    <!-- Vertical lines -->
    <line x1="100" y1="0" x2="100" y2="400" />
    <line x1="200" y1="0" x2="200" y2="400" />
    <line x1="300" y1="0" x2="300" y2="400" />
    <line x1="400" y1="0" x2="400" y2="400" />
    <line x1="500" y1="0" x2="500" y2="400" />
    <line x1="600" y1="0" x2="600" y2="400" />
    <line x1="700" y1="0" x2="700" y2="400" />
  </g>
  
  <!-- Performance graph showing optimization -->
  <g transform="translate(400, 200)">
    <!-- Performance metrics visualization -->
    <g>
      <!-- Before optimization curve -->
      <path d="M-200,100 C-150,80 -100,90 -50,70 C0,50 50,60 100,40 C150,30 200,15 250,0" 
            stroke="#ff6b6b" stroke-width="3" fill="none" stroke-dasharray="5,3" />
      
      <!-- After optimization curve -->
      <path d="M-200,100 C-150,40 -100,20 -50,0 C0,-10 50,-15 100,-20 C150,-22 200,-24 250,-25" 
            stroke="#A3B18A" stroke-width="3" fill="none" />
      
      <!-- Optimization point arrow -->
      <line x1="-100" y1="90" x2="-100" y2="20" stroke="#D4D4C4" stroke-width="2" />
      <polygon points="-100,20 -105,30 -95,30" fill="#D4D4C4" />
      <text x="-85" y="55" fill="#D4D4C4" font-family="Arial" font-size="12">Optimization</text>
      
      <!-- Labels -->
      <text x="0" y="110" fill="#D4D4C4" font-family="Arial" font-size="14" text-anchor="middle">Time</text>
      <text x="-200" y="-20" fill="#D4D4C4" font-family="Arial" font-size="14" transform="rotate(-90,-200,-20)">Performance</text>
      
      <!-- Axis -->
      <line x1="-200" y1="0" x2="250" y2="0" stroke="#D4D4C4" stroke-width="1" />
      <line x1="-200" y1="-120" x2="-200" y2="100" stroke="#D4D4C4" stroke-width="1" />
    </g>
  </g>
  
  <!-- Memory layout visualization (AoS vs SoA) -->
  <g transform="translate(180, 120)">
    <!-- Array of Structs (Less Efficient) -->
    <rect x="0" y="0" width="160" height="80" fill="url(#cpuPattern)" stroke="#D4D4C4" stroke-width="1" />
    
    <!-- Memory blocks representing different properties interleaved -->
    <rect x="5" y="5" width="30" height="20" fill="#ff6b6b" opacity="0.8" />
    <rect x="35" y="5" width="30" height="20" fill="#A3B18A" opacity="0.8" />
    <rect x="65" y="5" width="30" height="20" fill="#588157" opacity="0.8" />
    <rect x="95" y="5" width="30" height="20" fill="#D4D4C4" opacity="0.8" />
    <rect x="125" y="5" width="30" height="20" fill="#ff6b6b" opacity="0.8" />
    
    <rect x="5" y="30" width="30" height="20" fill="#A3B18A" opacity="0.8" />
    <rect x="35" y="30" width="30" height="20" fill="#588157" opacity="0.8" />
    <rect x="65" y="30" width="30" height="20" fill="#D4D4C4" opacity="0.8" />
    <rect x="95" y="30" width="30" height="20" fill="#ff6b6b" opacity="0.8" />
    <rect x="125" y="30" width="30" height="20" fill="#A3B18A" opacity="0.8" />
    
    <rect x="5" y="55" width="30" height="20" fill="#588157" opacity="0.8" />
    <rect x="35" y="55" width="30" height="20" fill="#D4D4C4" opacity="0.8" />
    <rect x="65" y="55" width="30" height="20" fill="#ff6b6b" opacity="0.8" />
    <rect x="95" y="55" width="30" height="20" fill="#A3B18A" opacity="0.8" />
    <rect x="125" y="55" width="30" height="20" fill="#588157" opacity="0.8" />
    
    <text x="80" y="-10" fill="#D4D4C4" font-family="Arial" font-size="12" text-anchor="middle">Array of Structs</text>
  </g>
  
  <g transform="translate(180, 250)">
    <!-- Struct of Arrays (More Efficient) -->
    <rect x="0" y="0" width="160" height="80" fill="url(#cpuPattern)" stroke="#D4D4C4" stroke-width="1" />
    
    <!-- Memory blocks representing contiguous properties -->
    <rect x="5" y="5" width="150" height="15" fill="#ff6b6b" opacity="0.8" />
    <rect x="5" y="25" width="150" height="15" fill="#A3B18A" opacity="0.8" />
    <rect x="5" y="45" width="150" height="15" fill="#588157" opacity="0.8" />
    <rect x="5" y="65" width="150" height="15" fill="#D4D4C4" opacity="0.8" />
    
    <text x="80" y="-10" fill="#D4D4C4" font-family="Arial" font-size="12" text-anchor="middle">Struct of Arrays</text>
  </g>
  
  <!-- Cache efficiency visualization -->
  <g transform="translate(620, 160)">
    <!-- CPU and cache hierarchy -->
    <rect x="-80" y="-60" width="160" height="120" rx="10" fill="rgba(255,255,255,0.05)" stroke="#D4D4C4" stroke-width="1" />
    <text x="0" y="-35" fill="#D4D4C4" font-family="Arial" font-size="12" text-anchor="middle">CPU Cache</text>
    
    <!-- L1 Cache -->
    <rect x="-60" y="-20" width="120" height="20" rx="5" fill="#588157" opacity="0.9" />
    <text x="0" y="-5" fill="#1B1F1D" font-family="Arial" font-size="10" text-anchor="middle">L1 - Fast</text>
    
    <!-- L2 Cache -->
    <rect x="-60" y="10" width="120" height="20" rx="5" fill="#A3B18A" opacity="0.8" />
    <text x="0" y="25" fill="#1B1F1D" font-family="Arial" font-size="10" text-anchor="middle">L2 - Medium</text>
    
    <!-- RAM -->
    <rect x="-60" y="40" width="120" height="20" rx="5" fill="#D4D4C4" opacity="0.7" />
    <text x="0" y="55" fill="#1B1F1D" font-family="Arial" font-size="10" text-anchor="middle">RAM - Slow</text>
  </g>
  
  <!-- Quadtree/Spatial partitioning visualization -->
  <g transform="translate(620, 280)">
    <rect x="-80" y="-60" width="160" height="120" fill="rgba(255,255,255,0.05)" stroke="#D4D4C4" stroke-width="1" />
    
    <!-- Quadtree divisions -->
    <line x1="-80" y1="0" x2="80" y2="0" stroke="#A3B18A" stroke-width="1" />
    <line x1="0" y1="-60" x2="0" y2="60" stroke="#A3B18A" stroke-width="1" />
    <line x1="-40" y1="-60" x2="-40" y2="0" stroke="#A3B18A" stroke-width="1" opacity="0.7" />
    <line x1="40" y1="-60" x2="40" y2="0" stroke="#A3B18A" stroke-width="1" opacity="0.7" />
    <line x1="-80" y1="-30" x2="0" y2="-30" stroke="#A3B18A" stroke-width="1" opacity="0.7" />
    <line x1="0" y1="-30" x2="80" y2="-30" stroke="#A3B18A" stroke-width="1" opacity="0.7" />
    <line x1="-80" y1="30" x2="0" y2="30" stroke="#A3B18A" stroke-width="1" opacity="0.7" />
    
    <!-- Objects in spatial partition -->
    <circle cx="-60" cy="-45" r="5" fill="#ff6b6b" />
    <circle cx="-20" cy="-45" r="5" fill="#ff6b6b" />
    <circle cx="30" cy="-15" r="5" fill="#ff6b6b" />
    <circle cx="60" cy="-45" r="5" fill="#ff6b6b" />
    <circle cx="-60" cy="15" r="5" fill="#ff6b6b" />
    <circle cx="-30" cy="45" r="5" fill="#ff6b6b" />
    <circle cx="20" cy="45" r="5" fill="#ff6b6b" />
    <circle cx="60" cy="15" r="5" fill="#ff6b6b" />
    
    <text x="0" y="-70" fill="#D4D4C4" font-family="Arial" font-size="12" text-anchor="middle">Spatial Partitioning</text>
  </g>
  
  <!-- Code snippet overlay -->
  <g transform="translate(400, 80)">
    <rect x="-150" y="-30" width="300" height="60" rx="5" fill="rgba(27, 31, 29, 0.8)" />
    <text x="-145" y="-10" fill="#A3B18A" font-family="monospace" font-size="12">// Struct of Arrays (SOA)</text>
    <text x="-145" y="10" fill="#D4D4C4" font-family="monospace" font-size="12">struct GameObjectData {</text>
    <text x="-145" y="30" fill="#D4D4C4" font-family="monospace" font-size="12">  Vector3 positions[1000]; // Contiguous</text>
  </g>
  
  <!-- Title -->
  <rect x="0" y="340" width="800" height="60" fill="rgba(27, 31, 29, 0.7)" />
  <text x="400" y="380" fill="#D4D4C4" font-family="Arial" font-size="24" text-anchor="middle" font-weight="bold">OPTIMIZING GAME PERFORMANCE</text>
</svg>