<svg xmlns="http://www.w3.org/2000/svg" viewBox="0 0 800 400">
  <!-- Background gradient -->
  <defs>
    <linearGradient id="bgGradient" x1="0%" y1="0%" x2="100%" y2="100%">
      <stop offset="0%" style="stop-color:#1B1F1D;stop-opacity:0.9" />
      <stop offset="100%" style="stop-color:#3a5a40;stop-opacity:0.9" />
    </linearGradient>
    
    <!-- Glow filter for ball -->
    <filter id="glow" x="-50%" y="-50%" width="200%" height="200%">
      <feGaussianBlur stdDeviation="5" result="blur" />
      <feComposite in="SourceGraphic" in2="blur" operator="over" />
    </filter>
    
    <!-- Particle system -->
    <radialGradient id="particleGradient" cx="50%" cy="50%" r="50%" fx="50%" fy="50%">
      <stop offset="0%" style="stop-color:#A3B18A;stop-opacity:1" />
      <stop offset="100%" style="stop-color:#A3B18A;stop-opacity:0" />
    </radialGradient>
  </defs>
  
  <!-- Main background -->
  <rect width="800" height="400" fill="url(#bgGradient)" />
  
  <!-- Grid lines representing a coordinate system -->
  <g stroke="#A3B18A" stroke-width="0.5" opacity="0.2">
    <!-- Horizontal lines -->
    <line x1="0" y1="50" x2="800" y2="50" />
    <line x1="0" y1="100" x2="800" y2="100" />
    <line x1="0" y1="150" x2="800" y2="150" />
    <line x1="0" y1="200" x2="800" y2="200" />
    <line x1="0" y1="250" x2="800" y2="250" />
    <line x1="0" y1="300" x2="800" y2="300" />
    <line x1="0" y1="350" x2="800" y2="350" />
    
    <!-- Vertical lines -->
    <line x1="100" y1="0" x2="100" y2="400" />
    <line x1="200" y1="0" x2="200" y2="400" />
    <line x1="300" y1="0" x2="300" y2="400" />
    <line x1="400" y1="0" x2="400" y2="400" />
    <line x1="500" y1="0" x2="500" y2="400" />
    <line x1="600" y1="0" x2="600" y2="400" />
    <line x1="700" y1="0" x2="700" y2="400" />
  </g>
  
  <!-- Physics equation path - a sine wave trajectory -->
  <path d="M 50,200 Q 150,100 250,200 T 450,200 T 650,200 T 850,200" 
        stroke="#588157" stroke-width="3" fill="none" 
        stroke-dasharray="5,5" opacity="0.7" />
  
  <!-- Platform for collision -->
  <rect x="300" y="280" width="200" height="20" rx="5" ry="5" fill="#A3B18A" />
  
  <!-- Bouncing ball with physics annotations -->
  <g>
    <!-- Velocity vector -->
    <line x1="150" y1="220" x2="200" y2="180" stroke="#D4D4C4" stroke-width="2" />
    <polygon points="200,180 190,182 195,190" fill="#D4D4C4" />
    <text x="175" y="175" fill="#D4D4C4" font-family="Arial" font-size="12">v</text>
    
    <!-- Gravity vector -->
    <line x1="150" y1="220" x2="150" y2="260" stroke="#ff6b6b" stroke-width="2" />
    <polygon points="150,260 145,250 155,250" fill="#ff6b6b" />
    <text x="160" y="240" fill="#ff6b6b" font-family="Arial" font-size="12">g</text>
    
    <!-- Main ball -->
    <circle cx="150" cy="220" r="30" fill="#588157" filter="url(#glow)" />
    
    <!-- Ball trail/ghost positions showing motion -->
    <circle cx="120" cy="260" r="30" fill="#588157" opacity="0.2" />
    <circle cx="90" cy="290" r="30" fill="#588157" opacity="0.1" />
    <circle cx="60" cy="310" r="30" fill="#588157" opacity="0.05" />
    
    <!-- Future position (prediction) -->
    <circle cx="180" cy="180" r="30" stroke="#588157" stroke-width="2" fill="none" stroke-dasharray="5,3" />
  </g>
  
  <!-- Collision object/platform with physics properties -->
  <g>
    <!-- Collision detection visualization -->
    <circle cx="400" cy="260" r="30" fill="#A3B18A" opacity="0.3" />
    
    <!-- Collision normal vector -->
    <line x1="400" y1="260" x2="400" y2="210" stroke="#D4D4C4" stroke-width="2" />
    <polygon points="400,210 395,220 405,220" fill="#D4D4C4" />
    <text x="410" y="230" fill="#D4D4C4" font-family="Arial" font-size="12">N</text>
    
    <!-- Momentum transfer -->
    <path d="M 370,260 C 390,230 410,230 430,260" 
          stroke="#A3B18A" stroke-width="3" fill="none" 
          stroke-dasharray="3,2" opacity="0.7" />
  </g>
  
  <!-- Particles representing small physics objects -->
  <g>
    <circle cx="550" cy="150" r="15" fill="#A3B18A" opacity="0.7" />
    <circle cx="580" cy="180" r="10" fill="#A3B18A" opacity="0.6" />
    <circle cx="610" cy="150" r="12" fill="#A3B18A" opacity="0.5" />
    <circle cx="630" cy="190" r="8" fill="#A3B18A" opacity="0.7" />
    <circle cx="660" cy="160" r="10" fill="#A3B18A" opacity="0.6" />
    
    <!-- Connection lines suggesting physics constraints -->
    <line x1="550" y1="150" x2="580" y2="180" stroke="#D4D4C4" stroke-width="1" opacity="0.5" />
    <line x1="580" y1="180" x2="610" y2="150" stroke="#D4D4C4" stroke-width="1" opacity="0.5" />
    <line x1="610" y1="150" x2="630" y2="190" stroke="#D4D4C4" stroke-width="1" opacity="0.5" />
    <line x1="630" y1="190" x2="660" y2="160" stroke="#D4D4C4" stroke-width="1" opacity="0.5" />
    <line x1="660" y1="160" x2="550" y2="150" stroke="#D4D4C4" stroke-width="1" opacity="0.5" />
  </g>
  
  <!-- Force field visualization -->
  <g opacity="0.1">
    <circle cx="400" cy="200" r="250" fill="none" stroke="#D4D4C4" stroke-width="1" />
    <circle cx="400" cy="200" r="200" fill="none" stroke="#D4D4C4" stroke-width="1" />
    <circle cx="400" cy="200" r="150" fill="none" stroke="#D4D4C4" stroke-width="1" />
    <circle cx="400" cy="200" r="100" fill="none" stroke="#D4D4C4" stroke-width="1" />
    <circle cx="400" cy="200" r="50" fill="none" stroke="#D4D4C4" stroke-width="1" />
  </g>
  
  <!-- Code snippet overlay -->
  <g transform="translate(50, 80)">
    <rect x="0" y="0" width="220" height="80" rx="5" fill="rgba(27, 31, 29, 0.8)" />
    <text x="10" y="20" fill="#A3B18A" font-family="monospace" font-size="12">Vector3 Move(Vector3 pos,</text>
    <text x="10" y="40" fill="#A3B18A" font-family="monospace" font-size="12">        Vector3 vel,</text>
    <text x="10" y="60" fill="#A3B18A" font-family="monospace" font-size="12">        float deltaTime) {</text>
    <text x="10" y="80" fill="#D4D4C4" font-family="monospace" font-size="12">  return pos + vel * deltaTime;</text>
  </g>
  
  <!-- Title -->
  <rect x="0" y="340" width="800" height="60" fill="rgba(27, 31, 29, 0.7)" />
  <text x="400" y="380" fill="#D4D4C4" font-family="Arial" font-size="24" text-anchor="middle" font-weight="bold">RESPONSIVE GAME PHYSICS</text>
</svg>